# xmcd
#
# Track frame offsets:
#	150
#	16462
#	30017
#	49672
#	60390
#	77337
#	90582
#	101547
#	115885
#	135547
#	148265
#	162637
#	173812
#	186000
#	197565
#	209552
#
# Disc length: 2947 seconds
#
# Revision: 2
# Processed by: cddbd v1.5.2PL0 Copyright (c) Steve Scherf et al.
# Submitted via: EasyCDDAExtractor 8.1.4.1
#
DISCID=cf0b8110
DTITLE=Various Artist - Nashville Connection
DYEAR=1991
DGENRE=Country
TTITLE0=Merle Haggard - Nobody's Darlin
TTITLE1=Johnny Paycheck - Roll In My Sweet Baby's Arms 
TTITLE2=Willie Nelson - Georgia On My Mind 
TTITLE3=Dolly Parton - Too Lonely Too Long 
TTITLE4=Johnny Cash - A Boy Named Sue 
TTITLE5=Charlie Rich - Behind Closed Doors 
TTITLE6=Frankie Laine - Hight Noon 
TTITLE7=Tammy Wynette - Crying In The Rain 
TTITLE8=Marty Robbins - El Paso City 
TTITLE9=Larry Gatlin - I Don't Wanna Cry 
TTITLE10=Ricky Skaggs - Highway 40 Blues 
TTITLE11=Janie Fricke - Don't Worry' Bout Me Baby 
TTITLE12=Charlie Rich - Rollin' With The Flow 
TTITLE13=Willie Nelson - ON The Road Again 
TTITLE14=Lacy J. Dalton - Hillbilly Girl With The Blues 
TTITLE15=Johnny Cash - A Thing Called Love 
EXTD=YEAR: 1991
EXTT0=
EXTT1=
EXTT2=
EXTT3=
EXTT4=
EXTT5=
EXTT6=
EXTT7=
EXTT8=
EXTT9=
EXTT10=
EXTT11=
EXTT12=
EXTT13=
EXTT14=
EXTT15=
PLAYORDER=
